<svg id="Layer_1" data-name="Layer 1" xmlns="http://www.w3.org/2000/svg" viewBox="0 0 110.57 12.53"><defs><style>.cls-1{fill:#0376bc;}</style></defs><title>test</title><path class="cls-1" d="M14.23,13.09h0V11l.23-.32V10.2h-.16l0-.19h0l.07-.21h0l-.15-.74-.06-.13L14,9.06l-.15.74L14,10l0,.19h-.22V9.26l0-.33a4.36,4.36,0,0,0,0-.46L13.33,9l-.46-.91-.55.67L12,8l-.44.67-.43-.81-.49.72-.37-.79-.52.75-.36-.72L9,8.58l-.52-.75-.37.79L7.64,7.9l-.43.81L6.76,8l-.33.69-.55-.67L5.42,9l-.33-.49a4.19,4.19,0,0,0,0,.46l0,.33v.94H4.82l0-.19.08-.21-.15-.74-.06-.14-.06.13-.15.74h0l.07.21h0l0,.19H4.32v.47l.23.32v2.09h0l-1.91.4V14H16.15v-.48Zm-9.07-.34-.37.08V11.55c0-.19.07-.34.15-.34H5c.08,0,.15.15.15.34Zm2-.13-.91.08V11.4a.31.31,0,0,1,.27-.34h.37a.31.31,0,0,1,.27.34Zm3-.07H8.58V11.31A.36.36,0,0,1,8.94,11H9.8a.36.36,0,0,1,.36.35Zm2.3.15-.91-.08V11.4a.31.31,0,0,1,.27-.34h.37a.31.31,0,0,1,.27.34Zm1.49.13-.37-.08v-1.2c0-.19.07-.34.15-.34h.07c.08,0,.15.15.15.34Z" transform="translate(-2.6 -1.58)"/><path class="cls-1" d="M5.83,7.34,6.37,8l.36-.75.46.7.43-.79.46.68L8.43,7,9,7.8,9.37,7l.41.83L10.31,7l.36.78.46-.68.43.79.46-.7.36.75.53-.65.43.85.21-.31A4.33,4.33,0,0,0,13,6.67l-.59.72-.33-.7-.45.67-.43-.81-.49.71-.36-.79-.53.78-.48-.8v0h0v0l-.48.8-.53-.78L8,7.25l-.48-.71-.43.81-.45-.67-.34.7-.59-.72a4.3,4.3,0,0,0-.52,1.21l.21.31Z" transform="translate(-2.6 -1.58)"/><path class="cls-1" d="M6.61,6.29,7.07,7l.43-.8L8,6.86l.36-.78.52.76c.12-.25.49-.83.52-.89s.4.64.52.89l.52-.76.36.78.47-.68.43.8.46-.69.35.73c.12-.14.28-.38.42-.56a4.32,4.32,0,0,0-2.38-1.68l0-.09-.13,0,0-.08-.23,0a.2.2,0,0,0,0-.39h-.07a.06.06,0,0,0,0-.05.06.06,0,0,0,0,0h0A.19.19,0,0,1,10,4a.34.34,0,0,1,0-.1V3.24L10.18,3H9.95v0h0a.57.57,0,0,0-.51-.53l0-.23a.07.07,0,0,0,0-.13l0-.47h0l0,.47a.07.07,0,0,0,0,.07.08.08,0,0,0,0,.06l0,.23a.57.57,0,0,0-.51.53h0V3H8.57l.23.27v.64a.38.38,0,0,1,0,.1A.19.19,0,0,1,8.67,4h0a.06.06,0,0,0,0,0,.06.06,0,0,0,0,.05H8.57a.2.2,0,0,0,0,.39l-.23,0,0,.08-.14,0,0,.09A4.33,4.33,0,0,0,5.85,6.46c.14.18.3.42.42.56Zm2.85-3h0a.15.15,0,0,1,.29,0h0V4h-.3ZM9,3.31H9a.15.15,0,0,1,.29,0h0V4H9Z" transform="translate(-2.6 -1.58)"/><path class="cls-1" d="M24.94,4.77a4.15,4.15,0,0,0-1.59-.24H18.83V5.84H20v6.81H18.83V14h4v-1.3H21.7v-2h1.69a4.65,4.65,0,0,0,1.45-.19,2.94,2.94,0,0,0,1.79-2.87A2.9,2.9,0,0,0,24.94,4.77ZM24.12,9a2.07,2.07,0,0,1-1,.18H21.7V5.92h1.47a1.94,1.94,0,0,1,1,.23,1.54,1.54,0,0,1,.69,1.41A1.53,1.53,0,0,1,24.12,9Z" transform="translate(-2.6 -1.58)"/><polygon class="cls-1" points="24.34 4.26 25.47 4.26 25.47 8.66 25.47 11.07 24.34 11.07 24.34 12.37 28.35 12.37 28.35 11.07 27.21 11.07 27.21 8.4 27.21 4.26 28.35 4.26 28.35 2.94 24.34 2.94 24.34 4.26"/><path class="cls-1" d="M42.08,8.59l-.22-2.75H43V4.53H39.92L38.18,8.95l-.35.9a5.94,5.94,0,0,0-.24.78h0a7.32,7.32,0,0,0-.23-.78L37,9.07,35.24,4.53H32.17V5.84h1.14L33,9.55l-.26,3.11H31.64V14h3.88v-1.3H34.46l.24-3.32L34.8,7.9a6,6,0,0,0,0-.88h.05a6.12,6.12,0,0,0,.21.84l.57,1.37,1.24,3h1.49L39.74,8.8l.39-.94A7,7,0,0,0,40.36,7h0a5.74,5.74,0,0,0,0,.88l.06.83.29,3.92h-1V14h3.87v-1.3H42.4Z" transform="translate(-2.6 -1.58)"/><path class="cls-1" d="M51.12,8,49.9,4.53h-2l-1.3,3.73-1.53,4.41h-.86V14h3.53v-1.3h-.93l.58-1.77h3L51,12.66H50V14h3.55v-1.3h-.86Zm-3.3,1.52.47-1.38.44-1.29A5.62,5.62,0,0,0,48.89,6h0a4.06,4.06,0,0,0,.17.82l.41,1.22L50,9.53Z" transform="translate(-2.6 -1.58)"/><path class="cls-1" d="M70.1,4.37A4.78,4.78,0,0,0,65.4,7.84a5,5,0,0,0-.18,1.34,4.89,4.89,0,1,0,9.78,0,5,5,0,0,0-.1-1A4.77,4.77,0,0,0,70.1,4.37Zm0,8.22A3.24,3.24,0,0,1,67,9.18a3.5,3.5,0,0,1,.24-1.3,3,3,0,0,1,5.77.2,3.56,3.56,0,0,1,.17,1.1A3.23,3.23,0,0,1,70.1,12.59Z" transform="translate(-2.6 -1.58)"/><path class="cls-1" d="M63,12.63a3.23,3.23,0,0,1-3.24-3.51A3.81,3.81,0,0,1,60,7.8a3,3,0,0,1,2.92-2,3.18,3.18,0,0,1,1.75.45A5.2,5.2,0,0,1,65.72,5a6.23,6.23,0,0,0-2.89-.68,4.74,4.74,0,0,0-4.68,3.45A5.11,5.11,0,0,0,58,9.2a4.82,4.82,0,0,0,4.93,4.92,6.45,6.45,0,0,0,2.89-.65,5.39,5.39,0,0,1-1.06-1.25A3.64,3.64,0,0,1,63,12.63Z" transform="translate(-2.6 -1.58)"/><path class="cls-1" d="M80.5,5.84h1.13V10.4a2.56,2.56,0,0,1-.32,1.35,2,2,0,0,1-1.77.85,2,2,0,0,1-1.78-.84,2.69,2.69,0,0,1-.32-1.34V5.84h1.14V4.53h-4V5.84H75.7v4.57a3.72,3.72,0,0,0,.71,2.38,4.35,4.35,0,0,0,6.27,0,4,4,0,0,0,.69-2.37V5.84H84.5V4.53h-4Z" transform="translate(-2.6 -1.58)"/><path class="cls-1" d="M91.13,5.84H92.3v4.66a7.65,7.65,0,0,0,.05.89h0a4.7,4.7,0,0,0-.34-.8l-.71-1.07L88,4.53H85.13V5.84h1.13v6.81H85.13V14h4v-1.3H88V8a6.06,6.06,0,0,0-.07-.87H88a5.32,5.32,0,0,0,.34.8l.91,1.39L92.3,14H94V5.84h1.13V4.53h-4Z" transform="translate(-2.6 -1.58)"/><polygon class="cls-1" points="93.21 5.76 94.68 5.76 94.68 4.34 96.46 4.34 96.46 8.9 96.46 11.07 95.33 11.07 95.33 12.37 99.34 12.37 99.34 11.07 98.2 11.07 98.2 9.13 98.2 4.34 100 4.34 100 5.76 101.47 5.76 101.47 2.94 93.21 2.94 93.21 5.76"/><path class="cls-1" d="M109.69,4.53V5.84h.9l-1.43,2.47a3,3,0,0,0-.21.43h0a2.55,2.55,0,0,0-.2-.43l-1.43-2.47h.92V4.53H104.7V5.84h.86L108.07,10v2.64h-1.14V14h4v-1.3h-1.13V10l2.51-4.17h.85V4.53Z" transform="translate(-2.6 -1.58)"/></svg>